<?xml version="1.0" standalone="no"?>
<!DOCTYPE svg PUBLIC "-//W3C//DTD SVG 20010904//EN"
 "http://www.w3.org/TR/2001/REC-SVG-20010904/DTD/svg10.dtd">
<svg version="1.0" xmlns="http://www.w3.org/2000/svg"
 width="512.000000pt" height="512.016714pt" viewBox="0 0 512.000000 512.016714"
 preserveAspectRatio="xMidYMid meet">
<metadata>
Created by potrace 1.16, written by Peter Selinger 2001-2019
</metadata>
<g transform="translate(0.000000,512.000000) scale(0.100000,-0.100000)"
fill="#000000" stroke="none">
<path d="M136 5103 c-9 -25 -30 -60 -49 -81 -10 -10 -17 -24 -17 -30 0 -7 -4
-12 -9 -12 -8 0 -19 -28 -26 -65 -6 -28 -18 -55 -26 -55 -5 0 -9 -74 -9 -165
0 -103 4 -165 10 -165 6 0 10 15 10 33 0 18 7 42 15 53 8 10 15 27 15 37 0 9
4 25 9 35 27 50 45 99 42 115 -1 9 3 17 8 17 6 0 11 9 11 20 0 11 5 20 10 20
6 0 10 11 10 24 0 13 7 29 15 36 8 7 15 18 15 25 0 8 3 15 8 17 11 5 50 90 57
126 l7 32 -50 0 c-38 0 -51 -4 -56 -17z"/>
<path d="M594 5111 c6 -10 -16 -61 -26 -61 -5 0 -8 -6 -8 -13 0 -8 -9 -22 -20
-32 -12 -11 -18 -25 -15 -36 4 -12 -1 -23 -14 -31 -12 -7 -21 -21 -21 -30 0
-10 -9 -33 -20 -53 -11 -19 -20 -36 -19 -38 1 -5 -15 -42 -20 -47 -15 -13 -31
-52 -31 -74 0 -14 -5 -28 -10 -31 -6 -4 -8 -15 -5 -25 3 -10 1 -21 -5 -25 -5
-3 -10 -19 -10 -35 0 -16 -4 -32 -10 -35 -5 -3 -10 -17 -10 -31 0 -13 -4 -24
-10 -24 -5 0 -10 -11 -10 -24 0 -14 -5 -28 -10 -31 -6 -4 -8 -15 -5 -26 4 -11
2 -19 -4 -19 -6 0 -11 -13 -11 -28 0 -30 -20 -82 -32 -82 -5 0 -8 -15 -8 -34
0 -18 -7 -39 -15 -46 -8 -7 -15 -19 -15 -26 0 -8 -3 -14 -8 -14 -7 0 -43 -73
-48 -99 -1 -7 6 -16 17 -18 10 -3 19 -9 19 -14 0 -5 30 -9 68 -9 63 0 68 2 80
27 6 15 12 36 12 47 0 12 7 34 15 50 8 15 15 37 15 47 0 11 5 19 10 19 6 0 10
11 10 24 0 14 4 27 9 30 4 3 11 24 15 46 3 22 11 40 16 40 6 0 10 9 10 20 0
11 4 29 10 40 5 11 14 28 19 38 5 10 12 38 16 62 4 25 10 47 14 50 10 7 61
115 61 128 0 7 3 12 8 12 10 0 32 50 32 72 0 10 5 18 10 18 6 0 10 6 10 14 0
7 7 19 15 26 8 7 15 21 15 31 0 20 19 60 34 70 5 4 6 14 3 23 -3 8 -2 18 3 21
6 4 10 17 10 31 0 13 5 24 10 24 6 0 10 9 10 20 0 11 3 20 8 20 4 0 12 11 19
25 l11 25 -100 0 c-54 0 -97 -4 -94 -9z"/>
<path d="M1140 5107 c0 -8 -9 -22 -20 -32 -11 -10 -20 -22 -20 -27 0 -11 -6
-19 -59 -79 -23 -25 -41 -51 -41 -56 0 -6 -7 -16 -15 -23 -9 -7 -24 -32 -35
-54 -10 -23 -28 -48 -39 -56 -12 -8 -21 -18 -21 -23 0 -4 -37 -46 -82 -93 -45
-47 -89 -100 -98 -118 -8 -18 -25 -45 -37 -60 -13 -16 -23 -37 -23 -47 0 -9
-3 -19 -7 -21 -16 -7 -83 -152 -83 -179 0 -16 -4 -29 -9 -29 -8 0 -24 -37 -22
-51 0 -4 -9 -15 -19 -24 -11 -10 -20 -23 -20 -30 0 -6 -11 -22 -25 -35 -14
-13 -25 -27 -25 -32 0 -5 -11 -20 -25 -33 -22 -22 -32 -25 -105 -25 -45 0 -89
5 -99 12 -15 9 -23 9 -34 -1 -13 -10 -13 -16 -1 -39 26 -54 106 -103 178 -109
21 -3 56 -12 77 -21 34 -14 39 -21 39 -49 0 -17 -5 -35 -11 -38 -6 -4 -8 -13
-5 -21 3 -7 1 -16 -4 -19 -6 -4 -10 -26 -10 -51 0 -24 -4 -44 -10 -44 -5 0
-10 -16 -10 -35 0 -19 -4 -35 -10 -35 -5 0 -10 -15 -10 -34 0 -19 -5 -38 -10
-41 -6 -3 -7 -17 -4 -30 3 -12 1 -26 -5 -29 -7 -5 -11 -48 -11 -112 0 -63 -4
-104 -10 -104 -13 0 -13 -237 0 -245 6 -3 10 -39 10 -80 0 -41 5 -77 10 -80 6
-4 8 -15 5 -26 -4 -11 -2 -19 4 -19 6 0 11 -13 11 -28 0 -30 20 -82 33 -82 4
0 7 -11 7 -23 0 -13 3 -27 8 -31 4 -4 8 -11 8 -14 6 -27 18 -52 25 -52 5 0 9
-9 9 -20 0 -11 8 -34 18 -52 10 -18 17 -38 15 -44 -2 -6 6 -19 17 -29 11 -10
20 -29 20 -42 0 -12 5 -23 10 -23 6 0 10 -9 10 -19 0 -11 4 -22 10 -26 5 -3 7
-12 4 -19 -3 -8 -1 -17 5 -21 6 -3 11 -17 11 -31 0 -13 3 -24 8 -24 11 0 46
-82 43 -101 -1 -9 7 -33 19 -53 11 -20 20 -45 20 -56 0 -11 4 -20 9 -20 9 0
22 -32 26 -60 2 -25 18 -54 37 -71 10 -9 18 -24 18 -34 0 -16 28 -85 39 -95
11 -10 30 -55 36 -88 4 -17 11 -32 16 -32 5 0 9 -11 9 -24 0 -14 5 -28 10 -31
6 -3 10 -17 10 -31 0 -13 5 -24 10 -24 6 0 10 -9 10 -21 0 -20 10 -47 51 -134
10 -22 21 -52 25 -68 3 -15 10 -30 15 -33 5 -3 9 -16 9 -30 0 -13 5 -24 10
-24 6 0 10 -9 10 -20 0 -11 4 -20 9 -20 5 0 13 -25 16 -55 4 -30 11 -58 16
-61 5 -3 9 -32 9 -65 0 -33 4 -59 10 -59 6 0 10 -20 10 -44 0 -24 4 -46 10
-48 5 -2 12 -43 16 -93 3 -54 13 -106 24 -130 10 -22 25 -58 34 -80 10 -22 21
-48 26 -57 6 -10 10 -27 10 -38 0 -11 5 -20 10 -20 6 0 10 -16 10 -35 0 -19 4
-35 9 -35 5 0 13 -25 16 -55 4 -30 11 -58 16 -61 5 -3 9 -30 9 -60 0 -35 5
-61 14 -70 17 -16 126 -20 126 -4 0 6 -4 10 -9 10 -7 0 -19 25 -25 52 0 3 -4
10 -9 14 -4 4 -7 18 -7 31 0 12 -4 23 -10 23 -5 0 -10 11 -10 24 0 14 -4 28
-10 31 -5 3 -10 19 -10 35 0 16 -5 32 -10 35 -6 3 -8 17 -6 30 3 14 0 27 -5
30 -5 4 -9 26 -9 51 0 24 -4 44 -10 44 -5 0 -10 18 -10 39 0 22 -4 43 -10 46
-5 3 -10 33 -10 65 0 32 -3 61 -8 64 -4 2 -7 25 -6 50 1 25 -2 46 -7 46 -5 0
-9 11 -9 24 0 14 -4 28 -10 31 -5 3 -10 17 -10 31 0 13 -4 24 -10 24 -5 0 -10
11 -10 24 0 14 -5 28 -10 31 -6 4 -8 10 -5 15 3 5 1 11 -5 15 -5 3 -10 19 -10
34 0 15 -9 36 -20 46 -11 10 -20 28 -20 40 0 11 -7 30 -15 41 -8 10 -15 28
-15 40 0 11 -9 29 -20 39 -11 10 -20 25 -20 33 0 8 -11 38 -24 66 -21 46 -32
71 -68 156 -6 14 -14 33 -19 42 -5 10 -9 27 -9 38 0 11 -4 20 -10 20 -5 0 -10
11 -10 24 0 14 -5 28 -11 31 -6 4 -8 13 -5 21 5 13 -9 50 -25 64 -3 3 -13 23
-23 45 -28 64 -41 90 -47 95 -12 11 -43 86 -40 99 1 8 -1 17 -6 20 -16 12 -52
97 -59 141 -3 24 -10 51 -14 60 -4 8 -17 35 -29 58 -11 24 -21 49 -21 55 0 7
-11 34 -25 61 -14 27 -25 58 -25 68 0 10 -4 18 -10 18 -5 0 -10 16 -10 35 0
22 -6 38 -15 41 -8 4 -15 18 -15 33 0 30 -21 81 -32 81 -5 0 -8 10 -8 23 0 12
-7 35 -15 51 -8 15 -15 39 -15 52 0 12 -5 26 -10 29 -6 3 -10 39 -10 80 0 41
-4 77 -10 80 -13 8 -13 212 0 220 5 3 10 37 10 76 0 39 4 69 10 69 6 0 10 30
10 69 0 39 4 72 8 75 5 3 12 51 16 107 3 56 10 107 15 113 5 6 11 25 13 41 4
36 27 40 44 7 19 -39 67 -82 90 -82 13 0 25 -4 29 -10 3 -5 12 -7 19 -4 8 3
17 1 21 -5 3 -6 22 -11 41 -11 19 0 34 -4 34 -10 0 -5 15 -10 34 -10 19 0 38
-4 41 -10 4 -6 70 -10 166 -10 99 0 159 4 159 10 0 6 14 10 30 10 17 0 38 4
48 9 25 14 55 25 72 26 28 4 60 17 60 26 0 5 9 9 20 9 11 0 20 3 20 8 0 4 9
12 19 17 11 6 36 19 58 30 21 10 44 25 51 32 7 7 17 13 21 13 4 0 32 25 63 55
30 30 60 55 65 55 5 0 23 15 41 33 51 52 45 80 -36 160 -37 37 -72 67 -78 67
-5 0 -16 9 -24 20 -8 11 -24 20 -36 20 -12 0 -27 7 -34 15 -7 8 -25 15 -41 15
-15 0 -31 5 -34 10 -3 6 -28 10 -55 10 -27 0 -52 5 -55 10 -4 6 -75 10 -180
10 -105 0 -176 -4 -180 -10 -3 -5 -22 -10 -41 -10 -19 0 -34 -4 -34 -10 0 -5
-15 -10 -34 -10 -18 0 -47 -7 -62 -15 -16 -8 -39 -15 -51 -15 -13 0 -23 -4
-23 -10 0 -5 -9 -10 -20 -10 -11 0 -20 -4 -20 -10 0 -5 -15 -10 -34 -10 -19 0
-36 -5 -38 -10 -4 -13 -71 -25 -92 -17 -12 5 -11 13 7 51 12 25 27 46 33 46 6
0 19 9 29 20 10 11 33 22 51 26 19 3 37 10 40 15 3 5 14 9 25 9 18 0 58 18 69
31 3 3 37 9 75 13 39 4 74 11 79 17 6 5 34 9 62 9 29 0 56 5 59 10 4 6 57 10
125 10 68 0 121 -4 125 -10 3 -5 30 -10 60 -10 30 0 56 -4 59 -9 3 -5 27 -12
53 -16 27 -4 50 -10 53 -14 3 -4 31 -19 63 -35 31 -15 57 -32 57 -37 0 -5 6
-9 14 -9 17 0 126 -110 126 -127 0 -7 5 -13 10 -13 6 0 10 -6 10 -13 0 -8 9
-22 20 -32 11 -10 23 -36 26 -57 4 -21 10 -38 15 -38 5 0 9 -11 9 -24 0 -14 5
-28 10 -31 6 -4 10 -100 10 -256 0 -159 -4 -249 -10 -249 -6 0 -10 -26 -10
-59 0 -33 -4 -63 -10 -66 -5 -3 -10 -39 -10 -80 0 -41 -4 -76 -9 -79 -4 -3 -6
-16 -4 -30 3 -13 0 -27 -6 -30 -6 -4 -11 -23 -11 -41 0 -19 -9 -50 -20 -70
-11 -20 -20 -46 -20 -60 0 -13 -5 -27 -10 -30 -6 -4 -8 -15 -5 -26 4 -11 2
-19 -4 -19 -7 0 -11 -23 -11 -55 0 -30 -4 -55 -10 -55 -5 0 -10 -16 -10 -35 0
-19 -4 -35 -10 -35 -5 0 -10 -20 -10 -43 0 -24 -3 -47 -6 -50 -4 -4 -6 -44 -5
-91 1 -51 -2 -87 -8 -91 -6 -3 -11 -21 -11 -39 0 -17 -5 -43 -12 -57 -11 -24
-77 -62 -129 -74 -39 -10 -75 -52 -119 -141 -54 -106 -52 -141 10 -204 32 -32
108 -72 115 -59 4 5 15 9 26 9 22 0 54 16 86 44 18 16 25 17 38 6 8 -7 15 -18
15 -25 0 -6 9 -20 20 -30 11 -10 20 -23 20 -30 0 -15 45 -57 53 -49 7 7 67
-18 67 -28 0 -5 16 -8 35 -8 19 0 35 -4 35 -10 0 -13 97 -13 105 0 3 6 28 10
56 10 27 0 49 5 49 10 0 6 11 10 24 10 14 0 28 5 31 11 4 5 17 9 28 7 12 -1
37 5 56 15 19 9 44 17 56 17 11 0 36 16 55 35 19 19 39 35 45 35 6 0 26 16 45
35 19 19 40 35 47 35 7 0 18 9 25 19 9 15 15 17 25 9 7 -6 13 -16 13 -22 0 -7
20 -32 45 -56 42 -41 49 -44 92 -42 26 1 51 6 57 12 5 5 18 10 27 10 20 0 79
55 79 73 0 7 9 18 19 24 28 18 51 71 51 119 0 24 5 46 10 49 13 8 13 65 1 65
-5 0 -11 12 -13 27 -5 40 -49 61 -133 62 -60 1 -73 -2 -85 -19 -8 -11 -19 -20
-25 -20 -7 0 -22 -11 -35 -25 -13 -14 -29 -25 -37 -25 -7 0 -13 -7 -13 -15 0
-8 -6 -15 -13 -15 -7 0 -28 -16 -47 -35 -19 -19 -40 -35 -47 -35 -7 0 -18 -9
-25 -20 -7 -11 -17 -20 -23 -20 -6 0 -22 -11 -37 -25 -15 -14 -31 -25 -36 -25
-5 0 -17 -9 -27 -20 -11 -12 -35 -28 -54 -37 -20 -10 -43 -25 -52 -34 -8 -10
-27 -21 -42 -24 -15 -4 -30 -11 -33 -16 -3 -5 -21 -9 -40 -9 -19 0 -34 -3 -34
-8 0 -12 -59 -34 -75 -28 -8 3 -17 1 -20 -4 -4 -6 -35 -10 -71 -10 -48 0 -66
4 -70 15 -4 8 -15 15 -25 15 -12 0 -19 7 -19 19 0 10 -7 21 -15 25 -8 3 -15
15 -15 26 0 11 -4 20 -10 20 -5 0 -10 11 -10 24 0 14 -4 28 -10 31 -5 3 -10
35 -10 71 0 36 4 64 10 64 6 0 10 30 10 70 0 40 -4 70 -10 70 -6 0 -10 33 -10
80 0 47 4 80 10 80 6 0 10 22 10 49 0 28 4 52 9 55 4 3 11 49 15 103 4 54 11
100 16 101 6 2 10 35 10 72 0 38 4 72 10 75 5 3 10 24 10 45 0 21 4 41 9 44 5
3 12 53 16 111 4 58 11 108 16 111 5 3 9 48 9 100 0 56 4 94 10 94 6 0 10 38
10 94 0 53 4 98 10 101 13 8 13 232 0 240 -5 3 -10 44 -10 91 0 49 -4 84 -10
84 -5 0 -10 15 -10 34 0 18 -7 39 -15 46 -8 7 -15 21 -15 33 0 11 -8 27 -17
36 -20 18 -39 46 -52 76 -5 12 -16 27 -25 34 -9 7 -16 19 -16 25 0 15 -92 106
-106 106 -6 0 -19 9 -30 21 -10 11 -38 29 -61 40 -24 11 -43 24 -43 29 0 6
-11 10 -24 10 -14 0 -28 5 -31 10 -3 6 -28 10 -54 10 -26 0 -53 6 -60 13 -9 9
-72 12 -246 12 -174 0 -237 -3 -247 -12 -6 -7 -24 -13 -39 -13 -15 0 -31 -4
-34 -10 -3 -5 -23 -10 -44 -10 -21 0 -41 -3 -45 -7 -12 -12 -96 -31 -101 -22
-3 4 -1 10 5 14 5 3 10 17 10 30 0 12 7 25 15 29 8 3 15 12 15 19 0 8 7 20 15
27 9 7 25 32 35 54 10 23 55 76 99 119 45 43 81 82 81 87 0 13 60 70 74 70 7
0 21 16 32 35 10 20 26 35 36 35 10 0 18 6 18 14 0 7 21 34 46 60 26 25 43 46
39 46 -5 0 1 10 12 23 11 12 27 39 37 59 9 20 21 40 26 43 6 3 10 13 10 21 0
11 -16 14 -75 14 -56 0 -75 -3 -75 -13z m150 -1118 c0 -5 -7 -9 -15 -9 -9 0
-15 9 -15 21 0 18 2 19 15 9 8 -7 15 -16 15 -21z m177 9 c20 -19 23 -31 23
-99 0 -43 -4 -81 -10 -84 -5 -3 -10 -15 -10 -26 0 -41 -65 -119 -99 -119 -11
0 -23 -4 -26 -10 -3 -5 -19 -10 -34 -10 -15 0 -33 -6 -39 -12 -9 -9 -67 -14
-195 -16 -159 -4 -185 -2 -196 12 -7 9 -19 16 -25 16 -13 0 -36 46 -36 72 0
10 -4 18 -10 18 -6 0 -10 27 -10 60 0 33 4 60 10 60 6 0 10 9 10 20 0 42 61
120 94 120 16 0 17 -3 8 -12 -7 -7 -12 -29 -12 -49 0 -21 -6 -40 -12 -43 -10
-5 -10 -7 0 -12 6 -3 12 -16 12 -29 0 -13 4 -26 9 -29 5 -3 12 -18 15 -32 7
-28 28 -54 44 -54 5 0 17 -9 27 -20 11 -12 25 -18 36 -15 9 3 20 1 24 -5 8
-13 172 -13 180 1 4 6 13 8 20 5 7 -2 22 4 33 15 12 10 25 19 30 19 12 0 68
61 77 85 5 11 7 25 6 32 -1 6 3 14 9 18 5 3 10 37 10 76 0 38 3 69 7 69 4 0
17 -10 30 -22z m-672 -50 c-4 -13 -11 -27 -16 -32 -5 -6 -9 -22 -9 -37 0 -15
-4 -31 -10 -34 -24 -15 -4 -175 23 -175 4 0 7 -4 7 -10 0 -14 -56 -12 -83 3
-30 16 -97 82 -97 95 0 5 -7 15 -15 22 -31 26 -12 75 40 107 11 7 45 25 75 40
30 15 57 31 58 35 2 4 10 8 19 8 10 0 12 -6 8 -22z m803 -15 c21 -21 44 -50
52 -66 13 -26 12 -29 -20 -62 -18 -19 -46 -37 -62 -40 -15 -4 -28 -11 -28 -16
0 -5 -4 -9 -10 -9 -5 0 -10 22 -10 49 0 28 5 53 10 56 6 3 10 33 10 66 0 32 4
59 10 59 5 0 27 -17 48 -37z m-463 -163 c4 -6 -7 -10 -25 -10 -18 0 -29 4 -25
10 3 6 15 10 25 10 10 0 22 -4 25 -10z m593 -1788 c2 -35 -1 -62 -7 -62 -5 0
-12 -13 -16 -29 -9 -44 -38 -64 -99 -69 -49 -4 -54 -2 -59 19 -12 42 -7 96 8
109 8 7 15 17 15 22 0 11 38 49 66 64 10 6 35 11 54 10 l35 -1 3 -63z m1210
35 c9 -7 11 -25 6 -65 -5 -45 -13 -62 -45 -94 -36 -37 -41 -39 -91 -36 -47 3
-54 6 -67 32 -25 54 -21 92 13 124 63 57 141 74 184 39z"/>
<path d="M2690 5110 c0 -5 8 -10 19 -10 10 0 27 -11 37 -25 10 -14 23 -25 28
-25 6 0 25 -14 42 -31 31 -30 57 -48 99 -68 11 -5 31 -21 44 -35 14 -14 31
-26 38 -26 7 0 33 -18 57 -40 24 -22 48 -40 53 -40 6 0 17 -7 24 -16 7 -9 22
-20 34 -25 33 -15 58 -32 86 -61 15 -16 31 -28 36 -28 5 0 20 -11 33 -25 13
-14 29 -25 35 -25 6 0 26 -16 45 -35 19 -19 39 -35 45 -35 6 0 22 -11 35 -25
l23 -25 -116 0 c-71 0 -117 -4 -117 -10 0 -5 -20 -10 -45 -10 -25 0 -45 -4
-45 -9 0 -4 -37 -11 -82 -15 -46 -4 -84 -11 -86 -16 -2 -6 -24 -10 -48 -10
-24 0 -44 -4 -44 -10 0 -5 -11 -10 -24 -10 -14 0 -28 -4 -31 -10 -3 -5 -16
-10 -29 -10 -12 0 -31 -7 -42 -15 -10 -8 -27 -15 -37 -15 -16 0 -56 -18 -67
-31 -3 -3 -12 -9 -20 -13 -57 -27 -120 -81 -120 -102 0 -6 -7 -17 -16 -24 -10
-9 -14 -26 -12 -49 3 -33 6 -36 36 -39 22 -2 32 1 32 10 0 17 51 68 68 68 7 0
12 5 12 10 0 6 6 10 13 10 8 0 22 8 31 19 9 10 34 21 56 25 21 3 40 9 42 13 6
14 92 52 131 59 20 3 40 10 43 15 3 5 16 9 30 9 13 0 24 5 24 10 0 6 20 10 44
10 27 0 46 5 49 13 3 9 59 12 235 12 171 0 234 -3 244 -12 6 -7 21 -13 33 -13
11 0 27 -9 35 -20 8 -11 19 -20 25 -20 6 0 26 -16 45 -35 19 -19 38 -35 44
-35 5 0 20 -10 32 -21 25 -24 59 -45 87 -55 18 -7 24 -24 7 -24 -6 0 -18 4
-28 10 -9 5 -43 12 -74 15 -32 4 -58 11 -58 16 0 5 -20 9 -45 9 -25 0 -45 5
-45 10 0 6 -20 10 -45 10 -25 0 -45 5 -45 10 0 6 -40 10 -99 10 -56 0 -103 -4
-106 -10 -3 -5 -33 -10 -66 -10 -33 0 -59 -4 -59 -10 0 -5 -15 -10 -34 -10
-19 0 -36 -5 -38 -10 -2 -6 -21 -13 -43 -16 -38 -5 -84 -22 -95 -35 -3 -3 -23
-13 -45 -23 -64 -28 -90 -41 -95 -47 -3 -3 -21 -13 -40 -22 -55 -27 -72 -40
-108 -74 -18 -18 -38 -33 -43 -33 -6 0 -17 -6 -24 -14 -12 -11 -11 -17 9 -35
12 -11 32 -21 44 -21 11 0 24 -4 27 -10 3 -5 18 -10 33 -11 15 0 41 -9 57 -20
17 -10 37 -22 45 -26 8 -4 29 -22 46 -40 17 -18 37 -33 43 -33 6 0 16 -11 21
-25 5 -14 15 -25 23 -25 7 0 28 -16 47 -35 19 -19 41 -35 50 -35 21 0 70 -23
70 -32 0 -5 20 -8 43 -8 24 0 46 -3 49 -6 8 -7 208 -7 216 0 3 3 27 6 53 6 26
0 51 5 54 10 3 6 17 10 31 10 13 0 32 4 42 10 9 5 35 17 57 26 22 10 42 20 45
23 9 10 54 29 82 35 14 3 52 31 83 61 31 30 59 55 63 55 4 0 30 23 57 50 27
28 54 50 61 50 6 0 19 9 29 20 19 21 19 20 92 -52 40 -40 73 -77 73 -82 0 -7
23 -37 88 -111 10 -11 26 -37 37 -58 11 -22 24 -47 30 -58 5 -10 13 -19 17
-19 5 0 8 -9 8 -20 0 -11 4 -20 9 -20 5 0 12 -13 16 -30 4 -16 11 -32 16 -35
5 -4 9 -17 9 -31 0 -13 5 -24 10 -24 6 0 10 -11 10 -24 0 -14 4 -27 9 -31 6
-3 13 -26 17 -50 3 -25 10 -48 15 -51 5 -3 9 -16 9 -30 0 -13 5 -24 10 -24 6
0 10 -11 10 -24 0 -14 4 -27 9 -30 4 -3 11 -45 15 -93 4 -48 12 -91 19 -95 8
-5 7 -11 -3 -23 -10 -12 -10 -19 -2 -27 7 -7 12 -40 12 -74 0 -35 5 -66 10
-69 15 -9 13 -192 -2 -198 -10 -3 -10 -9 0 -26 15 -25 17 -181 2 -181 -6 0
-10 -35 -10 -84 0 -47 -4 -87 -9 -91 -5 -3 -13 -46 -17 -95 -3 -50 -11 -93
-15 -96 -5 -3 -9 -16 -9 -30 0 -13 -4 -24 -10 -24 -5 0 -10 -16 -10 -35 0 -19
-4 -35 -9 -35 -4 0 -11 -26 -13 -58 -3 -31 -15 -74 -27 -95 -11 -21 -21 -46
-21 -56 0 -10 -7 -32 -15 -47 -8 -16 -15 -39 -15 -51 0 -12 -9 -38 -20 -58
-11 -20 -20 -46 -20 -59 0 -13 -7 -29 -15 -36 -8 -7 -15 -23 -15 -35 0 -13 -4
-25 -8 -27 -9 -4 -62 -110 -62 -126 0 -6 -4 -12 -8 -14 -10 -4 -62 -111 -62
-126 0 -7 -4 -12 -10 -12 -5 0 -10 -6 -10 -13 0 -8 -9 -22 -20 -32 -11 -10
-20 -22 -20 -28 0 -20 -35 -83 -57 -102 -13 -11 -23 -25 -23 -31 0 -6 -9 -19
-20 -29 -11 -10 -20 -23 -20 -30 0 -14 -72 -85 -86 -85 -6 0 -16 -16 -24 -35
-8 -19 -24 -45 -37 -57 -13 -12 -23 -25 -23 -30 0 -14 -117 -126 -139 -133
-12 -3 -21 -13 -21 -21 0 -17 -23 -44 -38 -44 -4 0 -19 -11 -32 -25 -13 -14
-29 -25 -35 -25 -6 0 -26 -16 -45 -35 -19 -19 -39 -35 -45 -35 -6 0 -33 -22
-60 -50 -27 -27 -53 -50 -58 -50 -5 0 -24 -16 -43 -35 -18 -19 -38 -35 -43
-35 -5 0 -14 -7 -21 -15 -7 -9 -33 -25 -57 -36 -23 -11 -43 -24 -43 -29 0 -6
53 -10 133 -10 l133 0 37 38 c20 21 37 42 37 48 0 13 43 54 57 54 6 0 13 9 16
21 3 12 10 18 16 14 6 -3 15 4 20 17 9 24 51 67 51 52 0 -4 22 13 49 40 27 27
55 46 61 44 15 -5 22 -55 9 -63 -5 -4 -9 -33 -9 -66 0 -33 -4 -59 -10 -59 -5
0 -10 -16 -10 -35 0 -19 -4 -35 -10 -35 -5 0 -10 -16 -10 -35 0 -33 2 -35 33
-35 26 0 35 6 44 27 11 26 28 132 40 251 3 28 9 52 14 52 5 0 9 16 9 35 0 19
4 35 9 35 5 0 11 10 14 23 3 21 4 21 12 3 6 -13 5 -21 -3 -24 -7 -2 -12 -19
-12 -38 0 -19 -4 -34 -8 -34 -5 0 -12 -48 -16 -107 -3 -59 -11 -112 -16 -117
-6 -6 -10 -32 -10 -58 l0 -48 85 0 c69 0 85 3 85 15 0 8 5 15 10 15 6 0 10 -7
10 -15 0 -8 7 -15 15 -15 11 0 15 12 15 49 0 28 5 53 10 56 6 3 10 35 10 70 0
35 5 67 10 70 6 3 10 39 10 80 0 41 4 76 9 79 5 3 12 53 16 111 4 58 11 108
16 111 5 3 9 16 9 30 0 13 5 24 10 24 6 0 10 15 10 34 0 19 5 38 11 41 6 4 8
13 5 21 -3 7 -1 16 4 19 6 4 10 14 10 24 0 21 22 71 33 71 4 0 7 9 7 20 0 11
4 28 10 38 5 9 17 35 26 57 10 22 20 42 23 45 9 8 30 43 40 67 6 11 14 24 19
27 6 3 20 25 32 48 12 24 25 45 29 48 6 4 43 76 46 90 4 14 19 46 25 50 8 6
44 82 45 93 0 5 8 14 18 21 9 7 17 23 17 34 0 11 4 23 9 26 4 3 11 24 15 47 4
22 11 39 17 37 12 -4 12 -3 4 -73 -4 -30 -11 -58 -16 -61 -5 -3 -9 -16 -9 -30
0 -13 -4 -24 -10 -24 -5 0 -10 -15 -10 -33 0 -18 -5 -38 -11 -44 -5 -5 -13
-36 -16 -67 -3 -31 -10 -59 -14 -62 -5 -3 -9 -23 -9 -44 0 -21 -4 -42 -10 -45
-5 -3 -10 -21 -10 -40 0 -18 -4 -35 -10 -37 -5 -1 -12 -47 -16 -101 -4 -54
-11 -100 -15 -103 -5 -3 -9 -18 -9 -34 0 -16 -5 -32 -10 -35 -6 -3 -10 -28
-10 -54 0 -26 -5 -52 -11 -58 -6 -6 -13 -81 -16 -177 -3 -91 -10 -166 -15
-166 -4 0 -8 -27 -8 -59 0 -33 -4 -63 -10 -66 -15 -9 -13 -152 3 -158 10 -3
10 -9 -1 -26 -22 -37 -15 -41 68 -41 l80 0 0 84 c0 47 4 87 10 91 5 3 8 102 7
245 -1 132 1 240 6 240 4 0 7 15 7 34 0 19 6 37 13 39 9 4 8 8 -3 17 -11 9
-12 13 -2 17 8 3 12 36 12 113 0 62 4 111 10 115 6 3 10 17 10 30 0 13 4 26 8
29 5 3 7 21 6 40 -2 20 1 38 6 41 6 4 10 30 10 60 0 30 5 57 10 60 6 3 10 24
10 45 0 21 5 42 10 45 6 3 10 37 10 76 0 38 3 69 8 69 4 0 6 29 5 65 -1 35 2
67 7 70 4 3 9 121 9 263 1 155 6 258 11 260 6 2 10 42 10 88 0 46 3 84 8 84 9
0 42 -74 42 -94 0 -8 5 -18 10 -21 6 -3 10 -17 10 -31 0 -13 5 -24 10 -24 6 0
10 -81 10 -224 0 -139 -4 -227 -10 -231 -6 -3 -10 -48 -10 -101 0 -52 -4 -94
-8 -94 -5 0 -12 -161 -16 -358 -4 -198 -11 -361 -17 -367 -5 -5 -9 -101 -9
-217 0 -132 -4 -208 -10 -208 -6 0 -10 -45 -10 -115 0 -70 -4 -115 -10 -115
-6 0 -10 -27 -10 -60 l0 -60 70 0 70 0 0 165 c0 103 4 165 10 165 6 0 10 41
10 104 0 59 4 108 10 111 6 3 10 50 10 104 0 54 3 100 6 104 8 7 8 177 0 184
-3 4 -6 32 -6 64 0 32 -4 61 -10 64 -5 3 -10 19 -10 35 0 16 -4 32 -10 35 -5
3 -10 24 -10 45 0 21 -4 42 -10 45 -6 4 -10 63 -10 145 0 82 4 141 10 145 6 3
10 48 10 101 0 56 4 94 10 94 6 0 10 38 10 94 0 59 4 97 11 102 8 4 7 9 -2 16
-11 7 -11 11 -1 15 15 6 17 193 2 193 -6 0 -10 30 -10 69 0 39 -4 73 -10 76
-5 3 -10 30 -10 60 0 30 -5 57 -11 60 -6 4 -9 27 -8 51 2 24 0 46 -4 50 -4 4
-7 34 -7 66 0 32 -4 58 -10 58 -5 0 -10 16 -10 35 0 19 -4 35 -10 35 -5 0 -10
25 -10 55 0 32 -4 55 -11 55 -6 0 -8 8 -4 19 3 11 1 22 -5 26 -5 3 -10 24 -10
45 0 21 -4 42 -10 45 -5 3 -10 17 -10 31 0 13 -4 24 -10 24 -5 0 -10 15 -10
34 0 19 -5 38 -11 41 -6 4 -8 13 -5 21 3 7 1 16 -4 19 -6 4 -10 17 -10 31 0
13 -4 24 -10 24 -5 0 -10 11 -10 24 0 14 -4 28 -10 31 -5 3 -10 17 -10 30 0
13 -5 27 -10 30 -6 4 -8 10 -5 15 3 5 -4 25 -15 45 -11 19 -20 44 -20 55 0 11
-4 20 -9 20 -8 0 -24 37 -22 51 0 4 -9 15 -19 24 -11 10 -20 24 -20 32 0 7 -3
13 -8 13 -4 0 -16 16 -26 35 -11 19 -23 35 -28 35 -4 0 -8 6 -8 13 0 8 -9 22
-20 32 -11 10 -17 21 -15 25 2 4 -4 15 -15 25 -11 10 -20 23 -20 28 0 6 -20
30 -45 54 -25 23 -45 47 -45 52 0 4 -22 30 -50 57 -27 27 -50 53 -50 59 0 13
-82 95 -95 95 -6 0 -39 30 -75 67 -36 36 -79 72 -95 79 -17 7 -39 22 -50 34
-11 12 -29 26 -40 31 -32 14 -56 32 -95 66 -19 18 -39 33 -44 33 -4 0 -17 11
-28 25 -11 14 -25 25 -32 25 -7 0 -21 9 -31 20 -10 11 -24 20 -32 20 -7 0 -13
7 -13 15 0 8 -6 15 -13 15 -7 0 -28 16 -47 35 -19 19 -38 35 -42 35 -4 0 -25
16 -45 35 -20 19 -41 35 -46 35 -6 0 -23 16 -40 35 -16 19 -35 35 -42 35 -6 0
-22 12 -36 26 -13 14 -33 30 -44 35 -28 13 -55 30 -84 57 -14 12 -30 22 -36
22 -5 0 -21 14 -34 30 -13 17 -29 30 -35 30 -7 0 -23 11 -36 25 -13 14 -29 25
-35 25 -6 0 -22 11 -35 25 -13 14 -27 25 -32 25 -5 0 -21 11 -36 25 -15 14
-30 25 -34 25 -3 0 -26 20 -50 45 -43 44 -44 45 -110 45 -39 0 -68 -4 -68 -10z
m420 -1054 c0 -8 -4 -17 -9 -21 -14 -8 -41 -65 -41 -87 0 -10 -4 -18 -9 -18
-6 0 -11 -19 -13 -41 -5 -64 -28 -72 -76 -26 -21 20 -43 37 -49 37 -6 0 -16 7
-23 15 -11 13 -8 21 20 50 19 19 40 35 47 35 7 0 13 3 13 8 0 9 45 28 88 37
17 4 32 11 32 16 0 5 5 9 10 9 6 0 10 -6 10 -14z m120 6 c0 -5 -3 -12 -7 -15
-12 -12 -2 -162 13 -191 8 -16 14 -35 14 -42 0 -7 22 -34 50 -60 48 -47 51
-48 116 -50 37 -2 76 2 88 8 47 24 56 28 72 28 24 0 114 95 141 148 14 27 23
63 23 89 0 36 3 44 16 41 13 -2 16 -17 17 -65 0 -34 -2 -66 -6 -69 -4 -4 -7
-16 -7 -26 0 -16 -10 -40 -32 -72 -4 -6 -22 -28 -40 -49 -31 -36 -38 -39 -101
-44 -37 -3 -70 -10 -73 -14 -3 -5 -32 -9 -65 -9 -33 0 -59 -4 -59 -10 0 -5
-22 -10 -49 -10 -28 0 -53 5 -56 10 -3 6 -17 10 -31 10 -13 0 -24 4 -24 9 0 4
-16 11 -37 14 -22 4 -50 19 -70 39 -32 31 -33 34 -33 115 0 49 4 83 10 83 6 0
10 9 10 20 0 11 5 20 10 20 6 0 10 5 10 12 0 16 71 88 87 88 7 0 13 -4 13 -8z
m406 -14 c-3 -25 -36 -38 -36 -16 0 15 19 38 32 38 4 0 6 -10 4 -22z m224 0
c54 -25 113 -92 113 -126 0 -29 -30 -69 -63 -85 -31 -16 -60 -34 -77 -49 -28
-25 -63 -32 -63 -14 0 9 3 16 8 16 12 0 32 52 32 82 0 15 5 28 10 28 6 0 10
28 10 64 0 36 -4 68 -10 71 -11 7 -14 39 -2 33 4 -2 23 -11 42 -20z m-515
-218 c10 -11 24 -20 30 -20 18 0 38 -27 26 -34 -18 -12 -105 49 -95 65 8 14
19 11 39 -11z m855 -3529 c0 -17 -4 -33 -10 -36 -5 -3 -10 -19 -10 -35 0 -16
-4 -32 -10 -35 -6 -4 -10 11 -10 39 0 25 4 47 9 50 5 3 7 15 4 26 -4 14 0 20
11 20 11 0 16 -9 16 -29z m-25 -131 c3 -5 1 -10 -4 -10 -6 0 -11 5 -11 10 0 6
2 10 4 10 3 0 8 -4 11 -10z"/>
<path d="M3030 5105 c7 -8 18 -15 24 -15 6 0 52 -40 101 -90 49 -49 94 -90 99
-90 5 0 23 -15 40 -33 17 -18 47 -40 67 -49 19 -10 43 -26 54 -38 10 -11 28
-20 41 -20 12 0 24 -4 26 -8 5 -14 97 -62 118 -62 11 0 20 -4 20 -9 0 -5 25
-13 55 -16 30 -4 58 -11 61 -16 3 -5 27 -9 54 -9 27 0 52 -4 55 -10 3 -5 17
-10 31 -10 13 0 24 -4 24 -10 0 -5 5 -10 11 -10 27 0 91 -37 156 -90 7 -6 16
-10 21 -10 5 0 16 -7 23 -16 7 -9 22 -20 34 -25 31 -14 56 -31 95 -66 19 -18
40 -33 45 -33 6 0 19 -11 29 -25 10 -14 24 -25 30 -25 13 0 236 -221 236 -234
0 -5 16 -23 35 -42 19 -18 35 -37 35 -42 0 -4 11 -19 25 -32 14 -13 25 -29 25
-35 0 -6 11 -22 25 -35 14 -13 25 -29 25 -35 0 -6 13 -24 30 -40 16 -15 32
-40 35 -56 3 -15 13 -30 21 -33 8 -3 19 -16 25 -28 16 -36 34 -66 52 -86 10
-10 17 -24 17 -30 0 -7 5 -12 10 -12 6 0 10 -5 10 -12 0 -13 51 -121 61 -128
4 -3 10 -19 14 -35 9 -40 28 -85 36 -85 7 0 17 -27 28 -69 3 -13 12 -26 19
-29 9 -3 12 25 12 115 0 107 -2 120 -20 133 -11 8 -20 19 -20 24 0 8 -38 95
-61 138 -5 10 -6 24 -3 32 3 8 1 17 -5 21 -6 3 -11 17 -11 31 0 13 -4 24 -10
24 -5 0 -10 9 -10 20 0 11 -4 28 -9 38 -14 25 -25 55 -26 72 -4 28 -17 60 -26
60 -5 0 -9 6 -9 14 0 7 -7 20 -16 27 -9 7 -20 24 -25 37 -5 13 -18 26 -29 29
-11 3 -20 12 -20 19 0 8 -7 14 -15 14 -8 0 -15 7 -15 15 0 9 -8 18 -17 22 -16
6 -55 37 -139 111 -36 32 -55 45 -109 72 -53 27 -76 42 -95 60 -19 19 -44 35
-95 59 -22 11 -49 29 -59 40 -11 12 -24 21 -30 21 -7 0 -18 9 -26 20 -8 11
-19 20 -26 20 -6 0 -19 9 -30 21 -10 11 -37 29 -59 40 -51 25 -76 40 -95 59
-15 15 -30 23 -105 56 -22 10 -47 25 -55 33 -18 18 -46 37 -75 50 -12 5 -27
16 -34 24 -7 9 -26 19 -42 22 -16 4 -29 11 -29 16 0 5 -6 9 -13 9 -8 0 -22 9
-32 20 -10 11 -22 20 -28 20 -9 0 -32 10 -114 47 -21 9 -42 17 -48 18 -5 0
-41 16 -80 35 -38 19 -73 33 -77 32 -5 -1 -8 3 -8 8 0 6 -5 10 -12 10 -6 0
-20 7 -30 17 -21 19 -56 40 -80 49 -10 3 -18 10 -18 15 0 5 -25 9 -56 9 -49 0
-55 -2 -44 -15z"/>
<path d="M4153 5095 c7 -14 17 -25 22 -25 6 0 53 -43 105 -95 52 -52 99 -95
105 -95 12 0 75 -67 75 -80 0 -6 5 -10 11 -10 13 0 199 -184 199 -197 0 -5 27
-35 60 -68 33 -33 60 -64 60 -70 0 -6 27 -37 60 -70 33 -33 60 -63 60 -68 0
-4 11 -20 25 -35 14 -15 25 -31 25 -37 0 -5 13 -20 29 -33 17 -13 32 -36 36
-52 3 -15 15 -36 26 -46 10 -9 19 -23 19 -31 0 -7 4 -13 9 -13 5 0 12 -11 15
-25 4 -14 11 -25 16 -25 6 0 10 46 10 114 0 92 -3 115 -15 120 -8 3 -20 17
-25 32 -6 14 -19 28 -30 31 -11 3 -20 11 -20 17 0 7 -11 23 -25 36 -14 13 -25
28 -25 33 0 8 -14 28 -60 84 -6 7 -10 16 -10 21 0 5 -9 17 -20 27 -11 10 -18
21 -15 25 2 4 -9 20 -25 35 -17 16 -30 33 -30 39 0 10 -228 248 -244 255 -6 2
-21 17 -34 32 -13 16 -29 29 -36 29 -6 0 -43 31 -81 70 -37 38 -72 67 -75 65
-4 -3 -15 4 -25 15 -15 17 -31 20 -101 20 l-82 0 11 -25z"/>
<path d="M4670 5112 c0 -11 34 -42 46 -42 5 0 36 -27 69 -60 33 -33 64 -60 70
-60 14 0 171 -160 178 -182 4 -10 13 -18 22 -18 8 0 15 -6 15 -13 0 -8 11 -24
25 -37 l25 -23 0 56 c0 31 -4 57 -10 57 -5 0 -10 6 -10 13 0 7 -22 35 -50 62
-27 27 -50 54 -50 60 0 6 -20 31 -45 55 -25 24 -45 48 -45 53 0 5 -17 27 -39
48 -39 39 -39 39 -120 39 -44 0 -81 -4 -81 -8z"/>
<path d="M173 3888 c-20 -32 -33 -62 -33 -78 0 -9 -8 -32 -17 -51 -10 -19 -16
-44 -15 -56 2 -11 -2 -24 -7 -28 -6 -3 -11 -22 -11 -41 0 -19 -4 -34 -10 -34
-6 0 -10 -42 -10 -105 0 -63 -4 -105 -10 -105 -13 0 -13 -267 0 -275 6 -4 10
-53 10 -115 0 -62 4 -111 10 -115 6 -3 10 -44 10 -90 0 -49 4 -87 11 -90 6 -4
9 -29 8 -56 -2 -27 0 -52 4 -55 4 -4 7 -18 7 -30 0 -13 5 -26 10 -29 6 -3 10
-24 10 -45 0 -21 5 -42 10 -45 6 -3 10 -17 10 -31 0 -13 5 -24 11 -24 7 0 9
-11 6 -27 -5 -26 -3 -34 21 -80 7 -13 12 -32 12 -43 0 -11 5 -20 10 -20 6 0
10 -11 10 -24 0 -14 5 -28 10 -31 6 -4 8 -10 5 -15 -3 -5 -1 -11 5 -15 5 -3
10 -17 10 -31 0 -13 3 -24 8 -24 8 0 32 -48 32 -65 0 -6 16 -42 35 -79 19 -38
35 -74 35 -81 0 -7 7 -18 15 -25 8 -7 15 -22 15 -33 0 -11 7 -29 17 -39 19
-21 40 -56 49 -80 3 -10 10 -18 15 -18 5 0 9 -6 9 -13 0 -8 9 -22 20 -32 11
-10 17 -21 15 -25 -2 -4 4 -15 15 -25 11 -10 20 -24 20 -32 0 -7 3 -13 8 -13
12 0 31 -50 25 -65 -5 -16 17 -75 29 -75 5 0 8 -20 8 -45 0 -25 5 -45 10 -45
6 0 10 -15 10 -33 0 -19 3 -37 7 -41 4 -3 6 -28 4 -55 -1 -27 2 -52 8 -56 6
-3 11 -24 11 -45 0 -21 5 -42 10 -45 6 -3 10 -39 10 -79 0 -43 5 -77 12 -84 9
-9 9 -12 0 -12 -15 0 -16 -46 -1 -56 8 -4 7 -9 -2 -16 -11 -7 -11 -11 -1 -15
7 -3 12 -26 12 -62 0 -32 3 -61 7 -64 3 -4 5 -38 4 -76 -1 -40 2 -72 8 -76 6
-3 11 -19 11 -35 0 -16 5 -32 10 -35 6 -3 10 -33 10 -66 0 -32 4 -59 9 -59 9
0 20 -80 21 -142 0 -15 4 -29 10 -33 5 -3 10 -28 10 -56 l0 -49 80 0 c79 0 80
0 80 25 0 14 -4 25 -10 25 -5 0 -10 20 -10 45 0 25 -4 45 -10 45 -5 0 -10 15
-10 33 0 19 -3 37 -7 41 -4 4 -6 24 -4 45 1 22 -3 50 -10 63 -26 50 -29 59
-29 92 0 19 -4 37 -9 41 -6 3 -13 37 -17 75 -4 39 -11 73 -15 76 -5 3 -9 27
-9 54 0 27 -4 52 -10 55 -5 3 -10 16 -10 29 0 13 -8 38 -17 57 -9 19 -16 48
-14 65 1 18 -2 35 -8 39 -6 3 -11 26 -11 51 0 24 -4 52 -9 62 -23 45 -30 72
-36 137 -3 39 -10 74 -16 79 -5 6 -9 27 -9 47 0 21 -4 41 -10 44 -5 3 -10 22
-10 41 0 19 -4 34 -9 34 -4 0 -11 28 -15 62 -3 34 -11 67 -16 72 -6 6 -10 22
-10 37 0 15 -4 31 -10 34 -5 3 -10 17 -10 30 0 13 -4 27 -10 30 -5 3 -10 14
-10 23 0 9 -7 30 -15 46 -8 15 -15 37 -15 47 0 11 -4 19 -10 19 -5 0 -10 11
-10 24 0 14 -4 27 -9 31 -6 3 -13 26 -17 50 -3 25 -10 48 -15 51 -5 3 -9 16
-9 30 0 13 -3 24 -8 24 -7 0 -21 27 -41 83 -6 15 -18 30 -26 33 -8 4 -15 15
-15 25 0 11 -4 27 -10 37 -5 9 -17 35 -26 57 -10 22 -21 42 -24 45 -14 11 -40
80 -40 103 0 14 -4 29 -10 32 -5 3 -10 22 -10 41 0 19 -4 34 -10 34 -5 0 -10
16 -10 35 0 19 -5 35 -11 35 -6 0 -9 9 -6 20 3 11 1 23 -4 26 -5 3 -9 32 -9
65 0 33 -4 59 -10 59 -5 0 -10 15 -10 34 0 19 -4 38 -10 41 -5 3 -10 28 -10
55 0 26 -5 50 -11 52 -16 5 -18 370 -1 375 8 3 12 27 12 74 0 39 4 69 10 69 6
0 10 20 10 45 0 25 5 45 10 45 6 0 10 20 10 44 0 25 4 47 10 51 5 3 7 12 4 19
-3 8 -1 17 5 21 6 3 11 17 11 31 0 13 5 24 10 24 6 0 10 15 10 34 0 19 5 38
10 41 6 3 10 15 10 26 0 13 -7 19 -23 19 -13 0 -36 14 -52 30 -32 33 -40 36
-52 18z"/>
<path d="M0 1615 c0 -137 4 -215 10 -215 6 0 10 -9 10 -20 0 -11 5 -20 10 -20
6 0 10 -6 10 -14 0 -7 7 -19 15 -26 8 -7 15 -21 15 -32 0 -11 11 -33 25 -50
14 -16 25 -36 25 -44 0 -9 13 -26 29 -40 16 -13 33 -38 36 -55 4 -16 15 -35
26 -42 10 -6 19 -20 19 -29 0 -10 5 -18 11 -18 6 0 9 -7 5 -15 -4 -12 27 -88
44 -105 14 -14 30 -52 25 -60 -5 -8 11 -46 25 -60 13 -13 30 -52 30 -69 0 -11
4 -22 10 -26 5 -3 7 -12 4 -19 -3 -8 -1 -17 5 -21 6 -3 11 -22 11 -41 0 -19 5
-34 10 -34 6 0 10 -11 10 -24 0 -14 5 -28 10 -31 6 -3 10 -19 10 -35 0 -16 5
-32 10 -35 6 -4 8 -15 5 -25 -3 -10 -1 -21 5 -25 5 -3 10 -19 10 -35 0 -16 5
-32 10 -35 6 -3 10 -22 10 -41 0 -19 5 -43 10 -54 6 -11 14 -28 19 -38 4 -9 6
-31 4 -48 -3 -18 0 -35 6 -38 6 -4 11 -21 11 -37 0 -17 6 -37 14 -45 17 -16
56 -19 56 -4 0 6 -4 10 -9 10 -4 0 -11 32 -14 72 -3 39 -11 76 -17 82 -5 5
-10 27 -10 48 0 21 -4 38 -10 38 -5 0 -10 9 -10 20 0 11 -4 28 -10 38 -5 9
-12 43 -15 74 -4 32 -11 60 -16 63 -5 4 -9 19 -9 35 0 16 -4 32 -10 35 -6 3
-10 19 -10 35 0 16 -4 31 -9 34 -4 3 -11 24 -15 46 -3 22 -15 56 -26 75 -11
20 -20 44 -20 55 0 11 -4 20 -10 20 -5 0 -13 18 -16 40 -4 22 -10 40 -15 40
-5 0 -9 9 -9 20 0 11 -4 20 -10 20 -5 0 -10 11 -10 24 0 14 -4 27 -9 30 -5 3
-12 18 -15 33 -8 34 -47 115 -60 124 -5 4 -6 14 -3 23 3 8 2 18 -3 21 -6 4
-10 22 -10 41 0 19 -3 34 -7 34 -11 0 -33 50 -33 72 0 10 -5 18 -11 18 -5 0
-9 8 -7 18 1 9 -5 32 -15 51 -9 19 -17 42 -17 53 0 10 -4 18 -10 18 -5 0 -10
11 -10 24 0 14 -5 28 -11 31 -5 4 -8 12 -6 18 2 7 -5 27 -15 45 -10 18 -18 46
-18 61 0 16 -9 46 -19 68 -11 21 -22 55 -26 76 -3 20 -10 37 -15 37 -6 0 -10
-85 -10 -215z"/>
<path d="M2325 1231 c-6 -5 -32 -11 -60 -14 -67 -6 -68 -6 -167 -56 -65 -31
-88 -48 -88 -62 0 -18 -15 -27 -22 -11 -7 16 -109 62 -138 62 -16 0 -30 5 -30
10 0 6 -25 10 -55 10 -30 0 -55 -4 -55 -10 0 -5 -16 -10 -37 -10 -48 0 -184
-67 -223 -110 -3 -4 -22 -14 -44 -24 -21 -10 -40 -26 -43 -35 -2 -9 -14 -21
-26 -26 -34 -15 -32 -38 5 -54 47 -19 216 -188 223 -223 4 -15 14 -34 23 -40
9 -7 23 -26 31 -43 17 -35 170 -195 187 -195 6 0 17 -7 24 -15 8 -10 30 -15
61 -15 27 0 49 -4 49 -10 0 -6 30 -10 70 -10 40 0 70 4 70 10 0 6 26 10 59 10
33 0 63 5 66 10 3 6 17 8 30 6 14 -3 27 0 30 5 4 5 26 9 49 9 30 0 65 11 112
35 37 19 81 35 96 35 15 0 28 5 28 10 0 6 8 10 18 10 11 0 34 8 53 17 19 10
39 18 44 18 18 1 95 40 95 47 0 5 7 8 15 8 15 0 116 50 125 62 3 3 19 9 35 13
17 4 48 15 70 25 22 10 58 25 80 35 54 22 89 39 95 45 8 8 44 30 65 39 12 5
27 16 34 25 7 9 20 16 27 16 8 0 14 4 14 9 0 5 11 12 25 15 14 4 25 11 25 16
0 6 6 10 13 10 8 0 22 9 32 20 10 11 23 20 30 20 20 0 85 75 85 98 0 19 -5 22
-44 22 -25 0 -47 4 -50 9 -3 4 -35 11 -70 14 -57 5 -99 19 -116 38 -11 12 -79
39 -99 39 -12 0 -21 5 -21 10 0 6 -11 10 -24 10 -14 0 -28 5 -31 10 -3 6 -19
10 -35 10 -16 0 -31 4 -35 9 -3 6 -13 10 -23 10 -93 3 -202 15 -202 22 0 12
-443 12 -455 0z m229 -70 c3 -4 49 -10 103 -13 110 -7 166 -28 171 -67 5 -29
-31 -68 -69 -76 -16 -4 -29 -11 -29 -16 0 -5 -11 -9 -24 -9 -14 0 -28 -4 -31
-10 -3 -5 -33 -10 -66 -10 -32 0 -67 -4 -77 -9 -9 -6 -38 -13 -64 -16 -26 -3
-50 -10 -53 -16 -4 -5 -24 -9 -45 -9 -21 0 -42 -4 -45 -10 -3 -5 -17 -10 -29
-10 -13 0 -37 -7 -52 -15 -16 -8 -41 -15 -56 -15 -15 0 -30 -4 -33 -10 -3 -5
-15 -10 -26 -10 -10 0 -27 -4 -37 -9 -67 -34 -79 -36 -221 -36 -108 0 -154 4
-178 15 -18 8 -33 18 -33 22 0 5 -7 8 -15 8 -8 0 -20 10 -26 23 -7 12 -15 24
-19 27 -3 3 -14 22 -24 43 l-18 39 28 29 c15 16 38 29 51 29 13 0 23 5 23 10
0 6 22 10 49 10 28 0 53 -4 56 -10 3 -5 33 -10 66 -10 33 0 59 -4 59 -10 0 -5
5 -10 12 -10 6 0 20 -8 30 -17 14 -12 21 -14 26 -6 4 6 21 14 37 18 40 9 77
26 95 46 8 8 22 19 30 22 8 4 29 16 45 26 17 11 40 20 52 20 12 1 23 7 25 13
3 8 33 14 86 16 45 2 82 8 82 13 0 11 137 12 144 0z m276 -261 c0 -5 16 -10
35 -10 35 0 35 0 35 -45 0 -25 -4 -45 -10 -45 -5 0 -19 -20 -30 -45 -12 -26
-31 -50 -43 -54 -12 -5 -31 -18 -41 -30 -11 -11 -25 -21 -33 -21 -7 0 -13 -4
-13 -10 0 -5 -9 -10 -20 -10 -11 0 -20 -4 -20 -8 0 -5 -16 -15 -35 -22 -20 -8
-41 -20 -47 -27 -6 -7 -21 -13 -34 -13 -13 0 -24 -3 -24 -8 0 -9 -45 -28 -87
-37 -18 -4 -33 -11 -33 -16 0 -5 -9 -9 -20 -9 -11 0 -28 -4 -38 -9 -46 -25
-92 -41 -115 -41 -14 0 -29 -5 -32 -10 -3 -6 -24 -10 -45 -10 -21 0 -42 -4
-45 -10 -7 -12 -145 -14 -145 -2 0 7 -72 42 -86 42 -3 0 -18 13 -33 29 -14 15
-38 32 -51 36 -45 13 -70 45 -70 88 0 59 21 77 91 77 32 0 61 5 64 10 3 6 30
10 60 10 30 0 56 4 59 9 3 5 35 12 71 16 36 3 67 11 70 16 4 5 17 9 31 9 13 0
24 5 24 10 0 6 16 10 35 10 19 0 35 4 35 9 0 5 23 12 50 16 28 4 50 11 50 16
0 5 11 9 24 9 14 0 28 5 31 10 3 6 17 10 31 10 13 0 24 4 24 9 0 4 28 11 61
14 34 3 66 10 72 16 6 6 37 11 69 11 32 0 58 4 58 10 0 6 16 10 35 10 19 0 35
-4 35 -10z"/>
<path d="M0 806 c0 -111 4 -176 10 -176 6 0 10 -26 10 -59 0 -33 5 -63 11 -66
6 -4 9 -36 8 -76 -1 -38 1 -72 4 -76 4 -3 7 -23 7 -44 0 -21 5 -41 10 -44 6
-3 10 -28 10 -55 0 -27 5 -52 10 -55 6 -3 10 -19 10 -35 0 -16 5 -32 10 -35 6
-3 10 -24 10 -46 l0 -39 60 0 60 0 2 53 c4 94 -4 232 -13 241 -5 6 -9 20 -9
33 0 13 -4 23 -10 23 -5 0 -10 15 -10 34 0 19 -5 38 -11 41 -6 4 -8 13 -5 21
3 7 1 16 -4 19 -6 4 -10 15 -10 26 0 10 -5 29 -12 42 -24 48 -28 57 -28 76 0
11 -4 22 -9 25 -4 3 -11 31 -14 62 -3 31 -11 62 -16 67 -6 6 -11 21 -11 34 0
13 -4 23 -10 23 -5 0 -10 11 -10 24 0 14 -4 27 -9 30 -5 3 -12 26 -15 51 -4
24 -11 47 -17 50 -5 4 -9 -62 -9 -169z"/>
</g>
</svg>
